C:\Users\febre\Documents\GitHub\PredSim-workshop-bcn-2024\S4. Modelling neuromusculoskeletal deficits\Code\Results\BCN_CP1\BCN_CP1_v1.mot
version=1
nRows=18
nColumns=29
inDegrees=yes
endheader
                time	         pelvis_tilt	           pelvis_tx	           pelvis_ty	       hip_flexion_l	       hip_flexion_r	        knee_angle_l	        knee_angle_r	       ankle_angle_l	       ankle_angle_r	    lumbar_extension	hamstrings_r/activation	bifemsh_r/activation	glut_max_r/activation	iliopsoas_r/activation	rect_fem_r/activation	  vasti_r/activation	gastroc_r/activation	 soleus_r/activation	tib_ant_r/activation	hamstrings_l/activation	bifemsh_l/activation	glut_max_l/activation	iliopsoas_l/activation	rect_fem_l/activation	  vasti_l/activation	gastroc_l/activation	 soleus_l/activation	tib_ant_l/activation	
          1.61802124	         -7.00946342	          2.02494280	          0.90754678	         30.08715583	        -12.26221013	        -17.31179659	        -12.51255816	          8.13064259	        -12.15306817	          2.27662664	          0.07231993	          0.15876387	          0.06905569	          0.15562467	          0.35683883	          0.05967584	          0.09068262	          0.10293360	          0.22955635	          0.10742901	          0.05000822	          0.21059691	          0.05000112	          0.05000288	          0.37022079	          0.05000166	          0.05000186	          0.32331150	
          1.62880805	         -7.14138169	          2.04016403	          0.90962317	         29.29197874	        -12.73151454	        -17.39324600	        -11.84111828	          8.14659822	        -11.68086772	          2.62716165	          0.08523924	          0.13475452	          0.06299262	          0.15042297	          0.34024129	          0.05058262	          0.07686415	          0.08724819	          0.22508141	          0.10097514	          0.05000733	          0.19056749	          0.05000099	          0.05000293	          0.35890672	          0.05000164	          0.05000193	          0.31769604	
          1.63959486	         -7.27179247	          2.05491030	          0.91202394	         28.40931220	        -13.10707966	        -17.28032649	        -11.01318223	          8.24448293	        -10.96369319	          2.92318856	          0.09636667	          0.11423010	          0.06955952	          0.17310447	          0.31732143	          0.05000110	          0.06515140	          0.07395299	          0.21529318	          0.09944393	          0.05000593	          0.17428685	          0.05000089	          0.05000301	          0.33185674	          0.05000162	          0.05000216	          0.30518196	
          1.65038166	         -7.39853866	          2.06922839	          0.91465149	         27.46433041	        -13.37624891	        -17.02215505	        -10.10161695	          8.39132313	        -10.05651412	          3.16826209	          0.08216367	          0.09682755	          0.07831072	          0.18896134	          0.29465791	          0.05000134	          0.05522354	          0.06268379	          0.20223459	          0.10027648	          0.05000526	          0.16494620	          0.05000080	          0.05000283	          0.29928840	          0.05000154	          0.05000237	          0.29056716	
          1.66116847	         -7.51978327	          2.08317434	          0.91739624	         26.47771439	        -13.54229753	        -16.66054373	         -9.13912153	          8.55523877	         -9.07288362	          3.36724904	          0.06964482	          0.08207521	          0.08650222	          0.20485154	          0.27395794	          0.05000165	          0.05000066	          0.05313190	          0.18569117	          0.10086406	          0.05000458	          0.15914896	          0.05000076	          0.05000306	          0.26813293	          0.05000146	          0.05000253	          0.27624418	
          1.67195528	         -7.63400141	          2.09680120	          0.92015472	         25.46407593	        -13.61380545	        -16.22724170	         -8.13331768	          8.71541646	         -8.12628695	          3.52484685	          0.05903322	          0.06957077	          0.09089314	          0.21685472	          0.25401312	          0.05000200	          0.05000063	          0.05000034	          0.18118808	          0.10152647	          0.05000417	          0.15572965	          0.05000073	          0.05000333	          0.24163096	          0.05000137	          0.05000264	          0.26365030	
          1.68274209	         -7.74000686	          2.11014930	          0.92283884	         24.43303040	        -13.59128421	        -15.74429912	         -7.10132509	          8.86018999	         -7.27583034	          3.64445563	          0.05003903	          0.05897261	          0.09216645	          0.22430179	          0.23621714	          0.05000280	          0.05000057	          0.05000043	          0.18034565	          0.10207425	          0.05000390	          0.15306051	          0.05000071	          0.05000354	          0.22079669	          0.05000130	          0.05000286	          0.25299160	
          1.69352890	         -7.83693210	          2.12324758	          0.92537855	         23.39037427	        -13.46804622	        -15.22623902	         -6.07613686	          8.98632030	         -6.49668076	          3.72838587	          0.05000237	          0.05000841	          0.08721432	          0.22942072	          0.22132840	          0.05001011	          0.05000061	          0.05000051	          0.18047650	          0.10154555	          0.05000367	          0.14919842	          0.05000071	          0.05000436	          0.20499227	          0.05000127	          0.05000337	          0.24419063	
          1.70431570	         -7.92424376	          2.13611663	          0.92772240	         22.33930218	        -13.23209547	        -14.68209135	         -5.10309186	          9.09595973	         -5.75689193	          3.77828780	          0.05000236	          0.05000766	          0.07426921	          0.23020073	          0.20896964	          0.05910980	          0.05000061	          0.05000053	          0.18246305	          0.10105580	          0.05000355	          0.14880607	          0.05000069	          0.05000457	          0.19326508	          0.05000126	          0.05000431	          0.23670024	
          1.71510251	         -8.00183423	          2.14877930	          0.92983539	         21.27885185	        -12.88182527	        -14.11341303	         -4.19676836	          9.19317657	         -5.04617012	          3.79662271	          0.05000197	          0.05000738	          0.06295821	          0.22770839	          0.19958672	          0.06980027	          0.05000062	          0.05000055	          0.18478464	          0.10007930	          0.05000346	          0.14614616	          0.05000069	          0.05000508	          0.18401609	          0.05000130	          0.05073051	          0.22993698	
          1.72588932	         -8.06966773	          2.16125825	          0.93169598	         20.20843273	        -12.42512717	        -13.52219191	         -3.34641963	          9.28030252	         -4.35758338	          3.78593476	          0.05000170	          0.05000712	          0.05337297	          0.22357666	          0.19284932	          0.07949998	          0.05000062	          0.05000056	          0.18729829	          0.09808265	          0.05000343	          0.14380066	          0.05000067	          0.05000545	          0.17586549	          0.05000137	          0.05445707	          0.22548126	
          1.73667613	         -8.12701351	          2.17357215	          0.93329543	         19.12818264	        -11.87183817	        -12.91235118	         -2.53849328	          9.35924976	         -3.68869130	          3.74741366	          0.05000141	          0.05000717	          0.05000735	          0.21818099	          0.18779271	          0.08654217	          0.05000062	          0.05000057	          0.18974888	          0.09517638	          0.05000347	          0.13763417	          0.05000069	          0.05000663	          0.16870515	          0.05000167	          0.05988302	          0.22055483	
          1.74746294	         -8.17295004	          2.18573500	          0.93463589	         18.04016121	        -11.23110852	        -12.29150818	         -1.76374269	          9.43689665	         -3.03904301	          3.68142394	          0.05000118	          0.05000731	          0.05000439	          0.21185168	          0.18386933	          0.09184529	          0.05000062	          0.05000057	          0.19206227	          0.09154329	          0.05000354	          0.13006827	          0.05000073	          0.05000875	          0.16248687	          0.05446592	          0.06599140	          0.21602006	
          1.75824975	         -8.20693609	          2.19775690	          0.93572914	         16.94734494	        -10.51004871	        -11.66740234	         -1.01860012	          9.51618665	         -2.41039208	          3.58828608	          0.05000104	          0.05000743	          0.05000327	          0.20478009	          0.18073358	          0.09649872	          0.05000063	          0.05000057	          0.19405639	          0.08741857	          0.05000368	          0.12369226	          0.05000076	          0.05001062	          0.15700361	          0.06751886	          0.07227881	          0.21311657	
          1.76903655	         -8.22877211	          2.20964507	          0.93659498	         15.85252129	         -9.71317291	        -11.04638438	         -0.30556181	          9.59882650	         -1.80585476	          3.46834601	          0.05000092	          0.05000771	          0.05000251	          0.19720425	          0.17817539	          0.09990738	          0.05000064	          0.05000058	          0.19552626	          0.08286477	          0.05000385	          0.11752324	          0.05000080	          0.05001392	          0.15246262	          0.08069611	          0.07947775	          0.20982708	
          1.77982336	         -8.23851182	          2.22140648	          0.93725815	         14.75628945	         -8.84270764	        -10.43102985	          0.36675664	          9.69135265	         -1.22968065	          3.32219243	          0.05000083	          0.05000827	          0.05000201	          0.18916532	          0.17616947	          0.10170291	          0.05000066	          0.05000060	          0.19629297	          0.07811897	          0.05000406	          0.11111211	          0.05000084	          0.05001910	          0.14827578	          0.09503601	          0.08697121	          0.20676248	
          1.79061017	         -8.23641221	          2.23304961	          0.93774483	         13.65643069	         -7.89937104	         -9.81808972	          0.98492078	          9.79331430	         -0.68727413	          3.15082301	          0.05000076	          0.05000928	          0.05000164	          0.18068792	          0.17486580	          0.10142518	          0.05000071	          0.05000063	          0.19616558	          0.07335899	          0.05000428	          0.10420504	          0.05000089	          0.05002377	          0.14383197	          0.10982266	          0.09482269	          0.20412651	
          1.80139698	         -8.22285815	          2.24458453	          0.93807926	         12.54963478	         -6.88316645	         -9.20196456	          1.53270869	          9.90048829	         -0.18517442	          2.95555064	          0.05000070	          0.05001092	          0.05000138	          0.17189248	          0.17469266	          0.09876612	          0.05000080	          0.05000068	          0.19506456	          0.06863454	          0.05000448	          0.09694872	          0.05000096	          0.05035682	          0.13858261	          0.12504225	          0.10294201	          0.20214303	
